<svg width="164" height="28" viewBox="0 0 164 28" fill="none" xmlns="http://www.w3.org/2000/svg">
  <rect width="164" height="28" rx="6" fill="#0B1220" />
  <path d="M18.6 8.2H13.4V20H10V8.2H4.8V5H18.6V8.2ZM33.0723 20H29.3531L27.9283 16.6402H21.7361L20.3113 20H16.5921L23.1518 5H26.5126L33.0723 20ZM24.0165 13.9524H25.648L23.7925 9.21619H23.8568L22.0012 13.9524Z" fill="#4DD0E1"/>
  <path d="M39.8198 20H36.2739V6.32744L39.8198 5.34431V20ZM45.9335 20H42.4518V6.32744L45.9335 5.34431V20ZM60.6103 11.0337C60.6103 13.6142 59.6207 15.487 57.7061 16.5376V16.6019L60.3563 20H56.366L54.7003 17.3498C54.0633 17.4764 53.358 17.5398 52.7166 17.5398C49.802 17.5398 47.6648 15.7529 47.6648 12.7144C47.6648 9.67591 49.8187 7.87293 52.7795 7.87293C53.9738 7.87293 55.0404 8.15681 55.8993 8.69337L60.3563 5.48775V9.15896L58.2113 10.7781C60.1899 11.3212 60.6103 12.8721 60.6103 11.0337ZM52.7795 10.1428C51.1084 10.1428 50.278 11.2433 50.278 12.8099C50.278 14.3923 51.139 15.3613 52.8101 15.3613C54.4812 15.3613 55.3116 14.3923 55.3116 12.8099C55.3116 11.2275 54.4506 10.1428 52.7795 10.1428Z" fill="#82F0FF"/>
  <path d="M96.2646 20H92.2188V14.8086H86.4877V20H82.4419V5.29735H86.4877V11.3953H92.2188V5.29735H96.2646V20ZM110.46 11.8204C112.016 12.3388 112.733 13.3889 112.733 14.8773C112.733 15.9421 112.279 16.8555 111.371 17.5891C110.493 18.307 109.101 18.6915 107.241 18.6915H98.8975V5.29735H106.287C108.082 5.29735 109.396 5.65097 110.245 6.37362C111.144 7.12766 111.597 8.09367 111.597 9.32373C111.597 10.9998 110.918 11.9052 109.907 12.4253V12.4959C110.25 12.6404 110.58 12.8732 110.46 11.8204ZM104.442 8.17314H102.345V10.8316H104.442C105.617 10.8316 106.279 10.3231 106.279 9.47027C106.279 8.61747 105.617 8.17314 104.442 8.17314ZM104.739 15.8124H102.345V18.1025H104.739C106.078 18.1025 106.873 17.5635 106.873 16.4593C106.873 15.3551 106.078 15.8124 104.739 15.8124Z" fill="#4DD0E1"/>
  <path d="M125.021 20H120.661L116.3 11.995V20H112.253V5.29735H116.613L120.974 13.2937V5.29735H125.021V20ZM140.271 20H135.912L131.551 11.995V20H127.505V5.29735H131.865L136.226 13.2937V5.29735H140.271V20Z" fill="#82F0FF"/>
  <path d="M152.457 12.439L156.96 5.29735H162.079L155.495 15.6239V20H151.449V15.5604L144.865 5.29735H149.984L154.487 12.439Z" fill="#4DD0E1"/>
</svg>

